<?xml version="1.0" encoding="UTF-8" standalone="no"?>
<!--
  ~ Copyright (c) 2004-2017.  OIC Group, Inc.
  ~
  ~ This file is part of Exponent
  ~
  ~ Exponent is free software; you can redistribute
  ~ it and/or modify it under the terms of the GNU
  ~ General Public License as published by the Free
  ~ Software Foundation; either version 2 of the
  ~ License, or (at your option) any later version.
  ~
  ~ GPL: http://www.gnu.org/licenses/gpl.txt
  ~
  -->

<svg
   xmlns:dc="http://purl.org/dc/elements/1.1/"
   xmlns:cc="http://creativecommons.org/ns#"
   xmlns:rdf="http://www.w3.org/1999/02/22-rdf-syntax-ns#"
   xmlns:svg="http://www.w3.org/2000/svg"
   xmlns="http://www.w3.org/2000/svg"
   version="1.1"
   id="svg2"
   viewBox="0 0 744.09448819 1052.3622047"
   height="297mm"
   width="210mm">
  <defs
     id="defs4" />
  <metadata
     id="metadata7">
    <rdf:RDF>
      <cc:Work
         rdf:about="">
        <dc:format>image/svg+xml</dc:format>
        <dc:type
           rdf:resource="http://purl.org/dc/dcmitype/StillImage" />
        <dc:title></dc:title>
      </cc:Work>
    </rdf:RDF>
  </metadata>
  <g
     id="layer1">
    <path
       d="m 365.29439,507.64412 -3.52638,3.64363 c -2.93312,-2.84675 -5.80087,-4.2705 -8.60162,-4.2705 -1.78225,0 -3.30713,0.58787 -4.57713,1.76312 -1.27,1.17538 -1.90474,2.54688 -1.90474,4.11376 0,1.38474 0.52337,2.70312 1.57025,3.95712 1.04637,1.28025 3.24562,2.78175 6.59574,4.50575 4.0835,2.11575 6.85738,4.15287 8.32388,6.11138 1.43875,1.98587 2.15875,4.21875 2.15875,6.69975 0,3.50099 -1.23,6.46437 -3.68875,8.8935 -2.459,2.42974 -5.53263,3.64362 -9.22063,3.64362 -2.4595,0 -4.80662,-0.53525 -7.0435,-1.606 -2.23637,-1.07075 -4.08687,-2.54638 -5.55225,-4.42725 l 3.44725,-3.9175 c 2.80176,3.16012 5.7735,4.74025 8.91513,4.74025 2.19862,0 4.07025,-0.70513 5.61513,-2.11575 1.545,-1.41012 2.317,-3.06888 2.317,-4.9755 0,-1.56737 -0.51025,-2.96438 -1.53088,-4.19237 -1.021,-1.20126 -3.32462,-2.71588 -6.91012,-4.54451 -3.84863,-1.98487 -6.46575,-3.94387 -7.853,-5.877 -1.38725,-1.93262 -2.08063,-4.13962 -2.08063,-6.62149 0,-3.23826 1.105,-5.92876 3.316,-8.07038 2.21038,-2.14163 5.00338,-3.21288 8.37887,-3.21288 3.92438,0 7.87451,1.92 11.85163,5.75925"
       style="fill:#f68712;fill-opacity:1;fill-rule:nonzero;stroke:none"
       id="path3348" />
    <path
       d="m 404.88064,519.9855 c -0.7325,-2.92488 -1.7975,-5.26275 -3.1975,-7.01325 -1.39875,-1.749 -3.25,-3.15963 -5.55,-4.23088 -2.3025,-1.07087 -4.72125,-1.6065 -7.2575,-1.6065 -4.18375,0 -7.78,1.34575 -10.7875,4.03513 -2.19625,1.9595 -3.8575,4.898 -4.98125,8.8155 l 31.77375,0 z m 0,11.4795 4.62375,2.42913 c -1.5175,2.97762 -3.26875,5.38087 -5.25625,7.20899 -1.98625,1.82863 -4.22125,3.21925 -6.705,4.17188 -2.48375,0.95362 -5.295,1.43025 -8.43125,1.43025 -6.955,0 -12.39125,-2.27838 -16.31375,-6.8365 -3.92125,-4.55763 -5.8825,-9.7095 -5.8825,-15.4555 0,-5.40725 1.66,-10.22613 4.98125,-14.4575 4.2075,-5.38038 9.8425,-8.07088 16.90125,-8.07088 7.2675,0 13.07125,2.75638 17.41,8.26663 3.085,3.89262 4.65375,8.7505 4.70625,14.57475 l -38.35625,0 c 0.10375,4.95112 1.68625,9.00975 4.74625,12.17625 3.06,3.166 6.83875,4.749 11.33625,4.749 2.17,0 4.2825,-0.3775 6.335,-1.13187 2.0525,-0.75438 3.79875,-1.75676 5.23625,-3.00488 1.43875,-1.249 2.995,-3.26562 4.66875,-6.04975"
       style="fill:#f68712;fill-opacity:1;fill-rule:nonzero;stroke:none"
       id="path3350" />
    <path
       d="m 413.22439,502.982 5.485,0 0,42.6265 -5.485,0 0,-42.6265 z m 2.7225,-13.25138 c 1.24875,0 2.315,0.44425 3.19875,1.332 0.88375,0.88863 1.32625,1.959 1.32625,3.21288 0,1.2275 -0.4425,2.28562 -1.32625,3.17337 -0.88375,0.88813 -1.95,1.332 -3.19875,1.332 -1.2225,0 -2.27625,-0.44387 -3.16,-1.332 -0.88375,-0.88775 -1.32625,-1.94587 -1.32625,-3.17337 0,-1.25388 0.4425,-2.32425 1.32625,-3.21287 0.88375,-0.88776 1.9375,-1.332 3.16,-1.332"
       style="fill:#f68712;fill-opacity:1;fill-rule:nonzero;stroke:none"
       id="path3352" />
    <path
       d="m 490.13064,507.1745 c -3.05125,0 -5.87,0.75 -8.4525,2.25 -2.58375,1.50037 -4.6375,3.60738 -6.16375,6.32025 -1.52625,2.71337 -2.28875,5.583 -2.28875,8.60937 0,3.0005 0.76875,5.87063 2.30875,8.60938 1.53875,2.73925 3.60625,4.87263 6.2025,6.3985 2.595,1.52675 5.38,2.2895 8.355,2.2895 3,0 5.84375,-0.75687 8.53125,-2.27 2.68625,-1.51325 4.75375,-3.561 6.2025,-6.14362 1.4475,-2.58301 2.17125,-5.49163 2.17125,-8.72751 0,-4.93012 -1.62375,-9.05275 -4.87125,-12.36574 -3.24875,-3.31351 -7.24625,-4.97013 -11.995,-4.97013 z m 21.92125,-4.1925 0,42.6265 -5.40625,0 0,-7.32613 c -2.3,2.79488 -4.87875,4.897 -7.73875,6.30763 -2.86,1.41013 -5.98875,2.11525 -9.3825,2.11525 -6.035,0 -11.18625,-2.187 -15.45625,-6.562 -4.27125,-4.375 -6.40625,-9.69688 -6.40625,-15.96538 0,-6.13825 2.155,-11.38775 6.465,-15.75 4.30875,-4.36187 9.49375,-6.543 15.55375,-6.543 3.5,0 6.66625,0.74413 9.50125,2.23338 2.8325,1.48875 5.32125,3.72175 7.46375,6.69975 l 0,-7.836 5.40625,0"
       style="fill:#f68712;fill-opacity:1;fill-rule:nonzero;stroke:none"
       id="path3354" />
    <path
       d="m 457.75814,532.83613 c -1.52375,2.71724 -3.57625,4.82612 -6.15625,6.32762 -2.57875,1.50187 -5.39375,2.25287 -8.4425,2.25287 -4.7425,0 -8.73625,-1.65862 -11.98125,-4.97562 -3.24375,-3.31738 -4.86625,-7.44425 -4.86625,-12.38088 0,-3.23825 0.72375,-6.15087 2.17,-8.73675 1.44625,-2.586 3.5175,-4.64262 6.215,-6.17087 2.6975,-1.52788 5.54375,-2.2915 8.54,-2.2915 2.945,0 5.71375,0.76362 8.30625,2.2915 2.59375,1.52825 4.65875,3.6635 6.19625,6.40575 1.5375,2.74263 2.30625,5.62888 2.30625,8.65862 0,3.03038 -0.7625,5.90288 -2.2875,8.61926 z m 1.45125,-24.38876 c -4.26625,-4.3745 -9.4125,-6.5625 -15.44,-6.5625 -3.39375,0 -6.51125,0.69925 -9.355,2.09625 -2.84375,1.39738 -5.415,3.50675 -7.71,6.32763 l 0,-19.481 -4.11125,0 c 0.54625,1.041 0.8225,2.19337 0.8225,3.4605 0,2.03025 -0.73125,3.77925 -2.19375,5.247 0,10e-4 -0.001,0.002 -0.002,0.003 l 0,46.07025 5.485,0 0,-7.83538 c 2.16625,2.97701 4.6575,5.21038 7.475,6.69913 2.81875,1.48888 5.9625,2.233 9.4325,2.233 6.05375,0 11.2325,-2.18025 15.53875,-6.5425 4.305,-4.36187 6.4575,-9.6245 6.4575,-15.78913 0,-6.24212 -2.1325,-11.55125 -6.39875,-15.92625"
       style="fill:#f68712;fill-opacity:1;fill-rule:nonzero;stroke:none"
       id="path3356" />
    <path
       d="m 243.35488,506.192 c 0,-9.39113 7.61276,-17.00387 17.00339,-17.00387 9.39112,0 17.00399,7.61275 17.00399,17.00387 0,9.39062 -7.61287,17.00387 -17.00399,17.00387 -9.39063,0 -17.00339,-7.61325 -17.00339,-17.00387 z m 39.41401,0 c 0,-12.37688 -10.03363,-22.41063 -22.41062,-22.41063 -12.37644,0 -22.41013,10.03375 -22.41013,22.41063 0,12.37012 10.02295,22.39937 22.39112,22.40975 l -0.001,3.7e-4 c 0,0 20.19488,0.0499 21.31938,-1.07512 0.958,-0.9575 1.064,-15.71725 1.07462,-20.084 0.0225,-0.4145 0.0366,-0.831 0.0366,-1.251"
       style="fill:#231f20;fill-opacity:1;fill-rule:nonzero;stroke:none"
       id="path3358" />
    <path
       d="m 312.03901,523.19587 c -9.39062,0 -17.0035,-7.61325 -17.0035,-17.00387 0,-9.39113 7.61288,-17.00387 17.0035,-17.00387 9.39101,0 17.00388,7.61275 17.00388,17.00387 0,9.39062 -7.61287,17.00387 -17.00388,17.00387 z m 0,-39.41449 c -12.3765,0 -22.41025,10.03374 -22.41025,22.41062 0,0.20362 0.01,0.40475 0.0151,0.6075 0.003,3.351 0.0665,19.6825 1.07575,20.69187 0.95512,0.9545 15.64987,1.06351 20.06737,1.07413 0.4145,0.023 0.8315,0.0366 1.252,0.0366 12.37688,0 22.41063,-10.03312 22.41063,-22.41012 0,-12.37688 -10.03375,-22.41062 -22.41063,-22.41062"
       style="fill:#231f20;fill-opacity:1;fill-rule:nonzero;stroke:none"
       id="path3360" />
    <path
       d="m 260.60876,575.53431 c -9.39012,0.13866 -17.11423,-7.36131 -17.25242,-16.75144 -0.13818,-9.38962 7.3618,-17.11375 16.75193,-17.252 9.39012,-0.13812 17.11374,7.36188 17.252,16.7515 0.13812,9.38963 -7.36188,17.11424 -16.75151,17.25194 z m 22.15625,-17.36719 10e-4,0 c 0,0 -0.2475,-20.17337 -1.38862,-21.28125 -1.14113,-1.10787 -21.333,-0.76124 -21.333,-0.76124 l 3.7e-4,0 c -0.005,5e-4 -0.0106,0 -0.016,0 -12.37556,0.18212 -22.26032,10.36237 -22.07819,22.73774 0.18213,12.37556 10.36231,22.26032 22.73781,22.07819 12.3755,-0.18213 22.26025,-10.36231 22.07813,-22.73781 0,-0.0118 -0.002,-0.0234 -0.002,-0.0356"
       style="fill:#231f20;fill-opacity:1;fill-rule:nonzero;stroke:none"
       id="path3362" />
    <path
       d="m 312.03901,575.53626 c -9.39062,0 -17.0035,-7.61276 -17.0035,-17.00339 0,-9.39112 7.61288,-17.004 17.0035,-17.004 9.39101,0 17.00388,7.61288 17.00388,17.004 0,9.39063 -7.61287,17.00339 -17.00388,17.00339 z m 0,-39.41401 c -0.4205,0 -0.838,0.0141 -1.25299,0.0366 -4.46488,0.0116 -19.07863,0.12251 -20.03076,1.07463 -0.93987,0.94 -1.05962,15.18162 -1.07375,19.8345 -0.0312,0.48437 -0.0528,0.97212 -0.0528,1.46487 0,12.37644 10.03375,22.41013 22.41025,22.41013 12.37688,0 22.41063,-10.03369 22.41063,-22.41013 0,-12.377 -10.03375,-22.41062 -22.41063,-22.41062"
       style="fill:#231f20;fill-opacity:1;fill-rule:nonzero;stroke:none"
       id="path3364" />
    <path
       d="m 415.94689,489.73062 c 1.24875,0 2.315,0.44425 3.19875,1.332 0.88375,0.88863 1.32625,1.959 1.32625,3.21288 0,1.2275 -0.4425,2.28562 -1.32625,3.17337 -0.88375,0.88813 -1.95,1.332 -3.19875,1.332 -1.2225,0 -2.27625,-0.44387 -3.16,-1.332 -0.88375,-0.88775 -1.32625,-1.94587 -1.32625,-3.17337 0,-1.25388 0.4425,-2.32425 1.32625,-3.21287 0.88375,-0.88776 1.9375,-1.332 3.16,-1.332"
       style="fill:#231f20;fill-opacity:1;fill-rule:nonzero;stroke:none"
       id="path3366" />
    <path
       d="m 340.83389,562.83362 1.32075,-1.67975 c 0.49812,0.51426 1.19725,0.88625 1.97362,0.88625 0.51425,0 0.77788,-0.1855 0.77788,-0.48087 0,-0.42 -0.55913,-0.46638 -1.27438,-0.63825 -1.25975,-0.29438 -2.45612,-0.8545 -2.45612,-2.31587 0,-1.67826 1.55425,-2.59626 3.59138,-2.59626 1.56975,0 2.45599,0.5445 2.93699,0.918 l -1.32087,1.71001 c -0.3735,-0.34276 -0.96425,-0.60651 -1.58538,-0.60651 -0.55962,0 -0.76225,0.21725 -0.76225,0.40388 0,0.29537 0.57526,0.38812 1.228,0.559 1.43075,0.37362 2.503,0.88625 2.503,2.37937 0,1.67826 -1.53862,2.689 -3.544,2.689 -1.77237,0 -2.8295,-0.60637 -3.38862,-1.228"
       style="fill:#231f20;fill-opacity:1;fill-rule:nonzero;stroke:none"
       id="path3368" />
    <path
       d="m 354.74752,559.19587 c -0.20276,-0.82362 -0.7935,-1.08737 -1.38438,-1.08737 -0.59075,0 -1.18163,0.26375 -1.38275,1.08737 l 2.76713,0 z m -5.70563,0.83988 c 0,-1.726 1.07325,-4.02688 4.32125,-4.02688 3.26425,0 4.2125,2.34726 4.2125,3.96488 0,0.29538 -0.0304,0.55912 -0.0621,0.69925 l -5.5175,0 c 0.17088,0.94875 1.14988,1.13425 1.87988,1.13425 0.93363,0 1.46237,-0.31 1.75638,-0.59088 l 1.43112,1.80425 c -0.54488,0.46638 -1.586,1.041 -3.32663,1.041 -3.26424,0 -4.69487,-2.03612 -4.69487,-4.02587"
       style="fill:#231f20;fill-opacity:1;fill-rule:nonzero;stroke:none"
       id="path3370" />
    <path
       d="m 359.27139,556.1955 2.95412,0 0,7.67963 -2.95412,0 0,-7.67963 z m -0.23338,-2.17637 c 0,-0.91701 0.74613,-1.61613 1.71038,-1.61613 0.96437,0 1.7105,0.69912 1.7105,1.61613 0,0.91649 -0.74613,1.61724 -1.7105,1.61724 -0.96425,0 -1.71038,-0.70075 -1.71038,-1.61724"
       style="fill:#231f20;fill-opacity:1;fill-rule:nonzero;stroke:none"
       id="path3372" />
    <path
       d="m 364.26314,556.1955 2.7675,0 0,1.0415 0.03,0 c 0.4975,-0.68363 1.18125,-1.22813 2.4875,-1.22813 2.17625,0 3.00125,1.43075 3.00125,3.4825 l 0,4.38376 -2.955,0 0,-3.96388 c 0,-0.747 -0.0462,-1.55512 -1.1025,-1.55512 -1.02625,0 -1.275,0.76162 -1.275,1.55512 l 0,3.96388 -2.95375,0 0,-7.67963"
       style="fill:#231f20;fill-opacity:1;fill-rule:nonzero;stroke:none"
       id="path3374" />
    <path
       d="m 380.24439,560.03575 c 0,-0.77738 -0.45125,-1.61712 -1.555,-1.61712 -1.10375,0 -1.53875,0.82375 -1.53875,1.61712 0,0.8545 0.54375,1.61625 1.53875,1.61625 1.01,0 1.555,-0.76175 1.555,-1.61625 z m -6.11,-0.0937 c 0,-2.31588 1.695,-3.93313 3.8875,-3.93313 1.18125,0 1.84875,0.51375 2.175,0.94826 l 0.0163,0 0,-3.99513 2.95375,0 0,10.91313 -2.75125,0 0,-0.88626 -0.0325,0 c -0.48125,0.57475 -1.2125,1.07275 -2.3775,1.07275 -2.985,0 -3.87125,-2.34712 -3.87125,-4.11962"
       style="fill:#231f20;fill-opacity:1;fill-rule:nonzero;stroke:none"
       id="path3376" />
    <path
       d="m 385.20439,556.1955 2.95375,0 0,7.67963 -2.95375,0 0,-7.67963 z m -0.2325,-2.17637 c 0,-0.91701 0.745,-1.61613 1.71,-1.61613 0.96375,0 1.71,0.69912 1.71,1.61613 0,0.91649 -0.74625,1.61724 -1.71,1.61724 -0.965,0 -1.71,-0.70075 -1.71,-1.61724"
       style="fill:#231f20;fill-opacity:1;fill-rule:nonzero;stroke:none"
       id="path3378" />
    <path
       d="m 395.96314,560.03575 c 0,-0.77738 -0.4525,-1.61712 -1.55625,-1.61712 -1.1025,0 -1.5375,0.82375 -1.5375,1.61712 0,0.8545 0.54375,1.61625 1.5375,1.61625 1.01125,0 1.55625,-0.76175 1.55625,-1.61625 z m -6.11,-0.0937 c 0,-2.31588 1.67875,-3.93313 3.87125,-3.93313 1.165,0 1.89625,0.49813 2.3775,1.07276 l 0.0312,0 0,-0.88613 2.75125,0 0,7.67963 -2.75125,0 0,-0.88626 -0.0312,0 c -0.48125,0.57475 -1.2125,1.07275 -2.3775,1.07275 -2.985,0 -3.87125,-2.34712 -3.87125,-4.11962"
       style="fill:#231f20;fill-opacity:1;fill-rule:nonzero;stroke:none"
       id="path3380" />
    <path
       d="m 400.92189,556.1955 2.7675,0 0,1.0415 0.0312,0 c 0.4975,-0.68363 1.18125,-1.22813 2.4875,-1.22813 2.17625,0 3,1.43075 3,3.4825 l 0,4.38376 -2.95375,0 0,-3.96388 c 0,-0.747 -0.0462,-1.55512 -1.10375,-1.55512 -1.025,0 -1.27375,0.76162 -1.27375,1.55512 l 0,3.96388 -2.955,0 0,-7.67963"
       style="fill:#231f20;fill-opacity:1;fill-rule:nonzero;stroke:none"
       id="path3382" />
    <path
       d="m 416.90564,560.03575 c 0,-0.77738 -0.4525,-1.61712 -1.55625,-1.61712 -1.1025,0 -1.5375,0.82375 -1.5375,1.61712 0,0.8545 0.5425,1.61625 1.5375,1.61625 1.01125,0 1.55625,-0.76175 1.55625,-1.61625 z m -6.11,-0.0937 c 0,-2.31588 1.67875,-3.93313 3.87,-3.93313 1.16625,0 1.8975,0.49813 2.37875,1.07276 l 0.0312,0 0,-0.88613 2.75125,0 0,7.67963 -2.75125,0 0,-0.88626 -0.0312,0 c -0.48125,0.57475 -1.2125,1.07275 -2.37875,1.07275 -2.98375,0 -3.87,-2.34712 -3.87,-4.11962"
       style="fill:#231f20;fill-opacity:1;fill-rule:nonzero;stroke:none"
       id="path3384" />
    <path
       d="m 427.89564,560.03575 c 0,-0.79337 -0.45,-1.61712 -1.53875,-1.61712 -1.1175,0 -1.57,0.83974 -1.57,1.61712 0,0.8545 0.545,1.61625 1.57,1.61625 0.995,0 1.53875,-0.76175 1.53875,-1.61625 z m -3.2325,2.95312 -0.0312,0 0,0.88626 -2.7675,0 0,-10.91313 2.955,0 0,3.99513 0.015,0 c 0.32625,-0.43451 0.995,-0.94826 2.175,-0.94826 2.20875,0 3.8875,1.61725 3.8875,3.93313 0,1.7725 -0.87,4.11962 -3.87125,4.11962 -1.165,0 -1.89625,-0.498 -2.3625,-1.07275"
       style="fill:#231f20;fill-opacity:1;fill-rule:nonzero;stroke:none"
       id="path3386" />
    <path
       d="m 438.36064,560.03575 c 0,-0.77738 -0.4525,-1.61712 -1.55625,-1.61712 -1.1025,0 -1.5375,0.82375 -1.5375,1.61712 0,0.8545 0.54375,1.61625 1.5375,1.61625 1.01125,0 1.55625,-0.76175 1.55625,-1.61625 z m -6.11,-0.0937 c 0,-2.31588 1.67875,-3.93313 3.87125,-3.93313 1.165,0 1.89625,0.49813 2.3775,1.07276 l 0.0312,0 0,-0.88613 2.75125,0 0,7.67963 -2.75125,0 0,-0.88626 -0.0312,0 c -0.48125,0.57475 -1.2125,1.07275 -2.3775,1.07275 -2.985,0 -3.87125,-2.34712 -3.87125,-4.11962"
       style="fill:#231f20;fill-opacity:1;fill-rule:nonzero;stroke:none"
       id="path3388" />
    <path
       d="m 449.35189,560.03575 c 0,-0.77738 -0.45125,-1.61712 -1.54,-1.61712 -1.1175,0 -1.57,0.83974 -1.57,1.61712 0,0.8545 0.545,1.61625 1.57,1.61625 0.995,0 1.54,-0.74562 1.54,-1.61625 z m -6.0325,-3.84025 2.7675,0 0,0.88613 0.0312,0 c 0.46625,-0.57463 1.1975,-1.07276 2.3475,-1.07276 2.17625,0 3.88625,1.60163 3.88625,3.91701 0,1.77249 -0.855,4.13574 -3.87125,4.13574 -1.18125,0 -1.865,-0.51262 -2.19125,-0.94824 l -0.015,0 0,3.65337 -2.955,0 0,-10.57125"
       style="fill:#231f20;fill-opacity:1;fill-rule:nonzero;stroke:none"
       id="path3390" />
    <path
       d="m 454.56064,561.341 0,-2.99963 -1.01,0 0,-2.14587 1.01,0 0,-2.08262 2.95375,0 0,2.08262 1.39875,0 0,2.14587 -1.39875,0 0,2.65775 c 0,0.65288 0.34125,0.76175 0.76125,0.76175 0.2175,0 0.52875,-0.0307 0.6375,-0.0625 l 0,2.207 c -0.32625,0.0943 -0.90125,0.15625 -1.46125,0.15625 -2.145,0 -2.89125,-0.918 -2.89125,-2.72062"
       style="fill:#231f20;fill-opacity:1;fill-rule:nonzero;stroke:none"
       id="path3392" />
    <path
       d="m 460.66939,556.1955 2.955,0 0,7.67963 -2.955,0 0,-7.67963 z m -0.2325,-2.17637 c 0,-0.91701 0.745,-1.61613 1.71,-1.61613 0.96375,0 1.71,0.69912 1.71,1.61613 0,0.91649 -0.74625,1.61724 -1.71,1.61724 -0.965,0 -1.71,-0.70075 -1.71,-1.61724"
       style="fill:#231f20;fill-opacity:1;fill-rule:nonzero;stroke:none"
       id="path3394" />
    <path
       d="m 465.16439,562.83362 1.32125,-1.67975 c 0.4975,0.51426 1.1975,0.88625 1.97375,0.88625 0.51375,0 0.7775,-0.1855 0.7775,-0.48087 0,-0.42 -0.56,-0.46638 -1.275,-0.63825 -1.26,-0.29438 -2.45625,-0.8545 -2.45625,-2.31587 0,-1.67826 1.555,-2.59626 3.59125,-2.59626 1.57,0 2.45625,0.5445 2.9375,0.918 l -1.32125,1.71001 c -0.3725,-0.34276 -0.96375,-0.60651 -1.585,-0.60651 -0.55875,0 -0.7625,0.21725 -0.7625,0.40388 0,0.29537 0.575,0.38812 1.22875,0.559 1.43,0.37362 2.5025,0.88625 2.5025,2.37937 0,1.67826 -1.53875,2.689 -3.54375,2.689 -1.7725,0 -2.83,-0.60637 -3.38875,-1.228"
       style="fill:#231f20;fill-opacity:1;fill-rule:nonzero;stroke:none"
       id="path3396" />
    <path
       d="m 474.22689,561.341 0,-2.99963 -1.01,0 0,-2.14587 1.01,0 0,-2.08262 2.95375,0 0,2.08262 1.39875,0 0,2.14587 -1.39875,0 0,2.65775 c 0,0.65288 0.3425,0.76175 0.7625,0.76175 0.21625,0 0.5275,-0.0307 0.63625,-0.0625 l 0,2.207 c -0.325,0.0943 -0.9,0.15625 -1.46125,0.15625 -2.14375,0 -2.89125,-0.918 -2.89125,-2.72062"
       style="fill:#231f20;fill-opacity:1;fill-rule:nonzero;stroke:none"
       id="path3398" />
    <path
       d="m 480.21189,562.41375 c 0,-0.93262 0.715,-1.648 1.68,-1.648 0.9625,0 1.67875,0.71538 1.67875,1.648 0,0.93262 -0.71625,1.64787 -1.67875,1.64787 -0.965,0 -1.68,-0.71525 -1.68,-1.64787"
       style="fill:#231f20;fill-opacity:1;fill-rule:nonzero;stroke:none"
       id="path3400" />
    <path
       d="m 491.07939,560.03575 c 0,-1.01075 -0.68375,-1.57075 -1.4925,-1.57075 -0.8075,0 -1.49125,0.56 -1.49125,1.57075 0,1.00975 0.68375,1.55425 1.49125,1.55425 0.80875,0 1.4925,-0.5445 1.4925,-1.55425 z m -5.93875,0 c 0,-1.88088 1.43125,-4.02688 4.44625,-4.02688 3.01625,0 4.44625,2.146 4.44625,4.02688 0,1.87987 -1.43,4.02587 -4.44625,4.02587 -3.015,0 -4.44625,-2.146 -4.44625,-4.02587"
       style="fill:#231f20;fill-opacity:1;fill-rule:nonzero;stroke:none"
       id="path3402" />
    <path
       d="m 495.72814,556.1955 2.7675,0 0,1.228 0.03,0 c 0.40625,-0.76175 1.0575,-1.41463 2.14625,-1.41463 0.23375,0 0.46625,0.0317 0.6675,0.0937 l 0,2.61138 c -0.2475,-0.0771 -0.62125,-0.1245 -0.9325,-0.1245 -1.07125,0 -1.725,0.52825 -1.725,1.63187 l 0,3.65376 -2.95375,0 0,-7.67963"
       style="fill:#231f20;fill-opacity:1;fill-rule:nonzero;stroke:none"
       id="path3404" />
    <path
       d="m 508.35189,559.89562 c 0,-0.8545 -0.54375,-1.46137 -1.44625,-1.46137 -0.885,0 -1.445,0.60687 -1.445,1.46137 0,0.87013 0.56,1.477 1.445,1.477 0.9025,0 1.44625,-0.60687 1.44625,-1.477 z m -5.40875,6.15575 1.15,-2.00537 c 0.48125,0.3735 1.18125,0.68362 2.13,0.68362 0.97875,0 2.0825,-0.34175 2.0825,-1.5235 l 0,-0.31 -0.0312,0 c -0.4825,0.543 -1.165,0.90088 -2.26875,0.90088 -2.50375,0 -3.545,-1.86525 -3.545,-3.88575 0,-2.09812 1.135,-3.90238 3.56,-3.90238 1.2275,0 1.975,0.46638 2.44125,1.13526 l 0.03,0 0,-0.94863 2.7675,0 0,6.59175 c 0,2.5805 -1.5075,4.165 -4.74125,4.165 -1.6325,0 -2.8925,-0.40375 -3.575,-0.90088"
       style="fill:#231f20;fill-opacity:1;fill-rule:nonzero;stroke:none"
       id="path3406" />
  </g>
</svg>
